<?xml version="1.0" encoding="UTF-8"?>
<svg version="1.1" xmlns="http://www.w3.org/2000/svg" width="500" height="500">
<path d="M0 0 C165 0 330 0 500 0 C500 165 500 330 500 500 C335 500 170 500 0 500 C0 335 0 170 0 0 Z " fill="#FEFEFE" transform="translate(0,0)"/>
<path d="M0 0 C32.99092742 0 32.99092742 0 43.79296875 10.546875 C51.15668073 18.73167345 51.96638226 26.8069813 51.48046875 37.484375 C50.80265513 45.76838424 47.05851063 51.8651099 41.03515625 57.46484375 C27.88602859 67.38347555 17.79194556 65 0 65 C0 43.55 0 22.1 0 0 Z " fill="#0287C4" transform="translate(91,209)"/>
<path d="M0 0 C4.95 0 9.9 0 15 0 C15 8.58 15 17.16 15 26 C21.93 26 28.86 26 36 26 C36 22.04 36 18.08 36 14 C37.85546875 15.26953125 39.7109375 16.5390625 41.56640625 17.80859375 C44.61141491 19.45432757 44.61141491 19.45432757 51 20 C51 34.85 51 49.7 51 65 C46.05 65 41.1 65 36 65 C36 56.42 36 47.84 36 39 C29.07 39 22.14 39 15 39 C15 47.58 15 56.16 15 65 C10.05 65 5.1 65 0 65 C0 43.55 0 22.1 0 0 Z " fill="#0387C4" transform="translate(232,209)"/>
<path d="M0 0 C5.04513185 3.14696343 9.47544092 7.80132275 11.3671875 13.4765625 C12.07227767 20.63149394 11.71270862 26.57042079 7.3671875 32.4765625 C0.98353889 38.86021111 -4.25589956 40.65172878 -13.0703125 40.9140625 C-20.58810004 40.72889532 -25.22334699 39.792618 -30.62890625 34.53515625 C-36.1679325 28.48346359 -37.13801396 24.03337902 -37.01953125 15.83984375 C-36.4018725 10.46808435 -34.57513066 7.14623436 -30.6328125 3.4765625 C-20.86870146 -3.37394918 -10.9736875 -4.87329892 0 0 Z " fill="#0588C5" transform="translate(180.6328125,234.5234375)"/>
<path d="M0 0 C3.86738845 3.19479916 6.27460141 6.27785649 8 11 C8 13.97 8 16.94 8 20 C-1.57 20 -11.14 20 -21 20 C-19.52360997 25.06008639 -19.52360997 25.06008639 -16 27 C-10.77218824 27.48405664 -8.38111809 26.65172937 -4 24 C0.13593582 24.21209927 3.38918149 26.06863196 7 28 C5.20101139 32.85726925 1.2781291 35.87267838 -3.2734375 38.125 C-9.78373748 40.21426532 -18.20248794 40.27564373 -24.5 37.4375 C-30.10259824 34.04708647 -33.95196135 29.19045167 -36 23 C-36.92979584 16.4522798 -36.48943297 11.19821004 -32.5546875 5.78515625 C-23.45490313 -4.66359113 -12.16053879 -7.26320118 0 0 Z " fill="#0789C5" transform="translate(404,236)"/>
<path d="M0 0 C5.39363712 3.00587312 8.44670265 6.09797736 11 11.8125 C11.6875 14.875 11.6875 14.875 11.6875 21.875 C1.7875 21.875 -8.1125 21.875 -18.3125 21.875 C-16.83610997 26.93508639 -16.83610997 26.93508639 -13.3125 28.875 C-9.23350895 29.45342046 -5.50603547 29.70384407 -2.0625 27.3125 C-1.485 26.838125 -0.9075 26.36375 -0.3125 25.875 C3.66764684 26.07911009 6.40061042 27.71504399 9.6875 29.875 C9.37099428 32.82905337 8.72976918 33.83397403 6.5625 35.9375 C-1.19746632 41.16704252 -7.97233518 42.00877723 -17.3125 40.875 C-23.75779608 38.58401798 -29.26931575 32.9613685 -32.3125 26.875 C-33.15216258 18.87163388 -33.2707208 12.22357974 -28.16796875 5.71484375 C-20.280755 -2.10595136 -10.28552268 -4.80401658 0 0 Z " fill="#0789C5" transform="translate(319.3125,234.125)"/>
<path d="M0 0 C-1.32 2.97 -2.64 5.94 -4 9 C-4.73605469 8.94199219 -5.47210938 8.88398438 -6.23046875 8.82421875 C-12.55274779 8.48954518 -12.55274779 8.48954518 -18.1875 11.0625 C-20.43475408 14.70460144 -20.45986476 16.78457299 -20 21 C-19.938125 21.763125 -19.87625 22.52625 -19.8125 23.3125 C-19.089234 25.17635134 -19.089234 25.17635134 -17.0625 26.3125 C-12.60545957 27.3130601 -8.48545065 26.64451136 -4 26 C-3.30034557 27.26418246 -2.61565237 28.53665402 -1.9375 29.8125 C-1.55464844 30.52019531 -1.17179687 31.22789062 -0.77734375 31.95703125 C0 34 0 34 -1 37 C-7.86316912 39.9700264 -15.76162308 40.47270552 -22.85546875 38.0078125 C-29.30796544 34.55216374 -33.41139382 29.85576168 -36 23 C-37.13843835 17.11213918 -36.30970012 12.0131657 -33.328125 6.81640625 C-24.51576092 -5.23579757 -12.54926804 -6.37423138 0 0 Z " fill="#0689C5" transform="translate(229,236)"/>
<path d="M0 0 C1.17755859 0.13535156 1.17755859 0.13535156 2.37890625 0.2734375 C4.4375 0.625 4.4375 0.625 6.4375 1.625 C5.86115861 6.37981646 3.88681479 9.59548212 1.4375 13.625 C0.60605469 13.57859375 -0.22539062 13.5321875 -1.08203125 13.484375 C-2.16871094 13.44828125 -3.25539063 13.4121875 -4.375 13.375 C-5.45394531 13.32859375 -6.53289062 13.2821875 -7.64453125 13.234375 C-10.60587632 13.32776171 -10.60587632 13.32776171 -12.21289062 15.296875 C-13.85328365 18.12661232 -13.98755483 20.00706145 -14.07421875 23.265625 C-14.10966797 24.33554687 -14.14511719 25.40546875 -14.18164062 26.5078125 C-14.21547852 28.17457031 -14.21547852 28.17457031 -14.25 29.875 C-14.28416016 31.00164062 -14.31832031 32.12828125 -14.35351562 33.2890625 C-14.43592274 36.06735954 -14.50088972 38.84616399 -14.5625 41.625 C-19.1825 41.625 -23.8025 41.625 -28.5625 41.625 C-28.5625 28.095 -28.5625 14.565 -28.5625 0.625 C-23.9425 0.625 -19.3225 0.625 -14.5625 0.625 C-14.2325 2.275 -13.9025 3.925 -13.5625 5.625 C-12.634375 4.820625 -11.70625 4.01625 -10.75 3.1875 C-7.22341861 0.13112947 -4.61916262 -0.56312691 0 0 Z " fill="#0789C5" transform="translate(362.5625,232.375)"/>
<path d="M0 0 C7.34282086 0 9.60099597 0.68079677 15 5 C19.30918406 9.75115166 20.1692723 12.37251172 20.25 18.75 C20.27578125 19.96171875 20.3015625 21.1734375 20.328125 22.421875 C19.91226321 26.95674878 18.61680039 30.2236753 15.53515625 33.609375 C9.52329256 38.2657787 7.99585514 39 0 39 C0 26.13 0 13.26 0 0 Z " fill="#FBFDFE" transform="translate(106,222)"/>
<path d="M0 0 C4.16609825 1.36345034 5.91415654 2.53114719 8.4375 6.125 C9.14252405 8.9622919 9.13557933 11.28690698 8.4375 14.125 C6.44828114 17.1088283 5.05247432 18.72776841 1.5 19.6015625 C-2.38395378 19.88108948 -4.24045887 19.3329849 -7.5625 17.1875 C-9.88483221 13.6314288 -10.36134465 11.47455842 -10.109375 7.2890625 C-9.49123699 4.84300211 -8.8087247 3.74065442 -7 2 C-3.5625 0.125 -3.5625 0.125 0 0 Z " fill="#F9FCFD" transform="translate(168.5625,243.875)"/>
<path d="M0 0 C2.93052231 1.99524923 4.64521503 3.42836485 5.4453125 6.97265625 C5.63099028 10.28390994 5.21285614 12.62981541 3.5625 15.5 C-0.25682396 17.73570183 -3.68518361 17.76004105 -8 17 C-10.5625 15.5 -10.5625 15.5 -12 13 C-12.7099846 8.0301078 -12.79117716 6.15080314 -9.9375 2 C-6.22192774 -0.52975133 -4.4117517 -0.7878128 0 0 Z " fill="#0B8BC6" transform="translate(284,205)"/>
<path d="M0 0 C1.65 0 3.3 0 5 0 C5 1.32 5 2.64 5 4 C5.99 4 6.98 4 8 4 C8 5.32 8 6.64 8 8 C7.01 8 6.02 8 5 8 C5 9.32 5 10.64 5 12 C3.35 12 1.7 12 0 12 C0 10.68 0 9.36 0 8 C-0.99 8 -1.98 8 -3 8 C-3 6.68 -3 5.36 -3 4 C-2.01 4 -1.02 4 0 4 C0 2.68 0 1.36 0 0 Z " fill="#E3F1F8" transform="translate(278,208)"/>
<path d="M0 0 C1.17369141 -0.02513672 1.17369141 -0.02513672 2.37109375 -0.05078125 C5.07388797 0.39727555 5.96255607 1.11579242 7.5625 3.3125 C7.5625 4.3025 7.5625 5.2925 7.5625 6.3125 C2.6125 6.3125 -2.3375 6.3125 -7.4375 6.3125 C-6.13536301 1.10395203 -5.17044256 0.02547016 0 0 Z " fill="#F5FAFC" transform="translate(390.4375,241.6875)"/>
<path d="M0 0 C2.5 1.875 2.5 1.875 4 4 C4 4.66 4 5.32 4 6 C-0.95 6 -5.9 6 -11 6 C-10.67 4.35 -10.34 2.7 -10 1 C-6.80713177 -0.59643412 -3.46579307 -0.51370451 0 0 Z " fill="#F5FAFC" transform="translate(313,242)"/>
</svg>
